  0
SECTION
  2
HEADER
  9
$ACADVER
  1
AC1014
  9
$HANDSEED
  5
FFFF
  9
$MEASUREMENT
 70
     1
  0
ENDSEC
  0
SECTION
  2
TABLES
  0
TABLE
  2
VPORT
  5
8
330
0
100
AcDbSymbolTable
 70
     4
  0
VPORT
  5
2E
330
8
100
AcDbSymbolTableRecord
100
AcDbViewportTableRecord
  2
*ACTIVE
 70
     0
 10
0.0
 20
0.0
 11
1.0
 21
1.0
 12
210.0
 22
148.5
 13
0.0
 23
0.0
 14
10.0
 24
10.0
 15
10.0
 25
10.0
 16
0.0
 26
0.0
 36
1.0
 17
0.0
 27
0.0
 37
0.0
 40
341.0
 41
1.24
 42
50.0
 43
0.0
 44
0.0
 50
0.0
 51
0.0
 71
     0
 72
   100
 73
     1
 74
     3
 75
     0
 76
     0
 77
     0
 78
     0
  0
ENDTAB
  0
TABLE
  2
LTYPE
  5
5
330
0
100
AcDbSymbolTable
 70
     1
  0
LTYPE
  5
14
330
5
100
AcDbSymbolTableRecord
100
AcDbLinetypeTableRecord
  2
BYBLOCK
 70
     0
  3

 72
    65
 73
     0
 40
0.0
  0
LTYPE
  5
15
330
5
100
AcDbSymbolTableRecord
100
AcDbLinetypeTableRecord
  2
BYLAYER
 70
     0
  3

 72
    65
 73
     0
 40
0.0
  0
LTYPE
  5
16
330
5
100
AcDbSymbolTableRecord
100
AcDbLinetypeTableRecord
  2
CONTINUOUS
 70
     0
  3
Solid line
 72
    65
 73
     0
 40
0.0
  0
ENDTAB
  0
TABLE
  2
LAYER
  5
2
100
AcDbSymbolTable
 70
5
  0
LAYER
  5
50
100
AcDbSymbolTableRecord
100
AcDbLayerTableRecord
  2
0
 70
0
  6
CONTINUOUS
  0
LAYER
  5
51
100
AcDbSymbolTableRecord
100
AcDbLayerTableRecord
  2
Edge.Cuts
 70
0
  6
CONTINUOUS
  0
LAYER
  5
52
100
AcDbSymbolTableRecord
100
AcDbLayerTableRecord
  2
F.Mask
 70
0
  6
CONTINUOUS
  0
LAYER
  5
53
100
AcDbSymbolTableRecord
100
AcDbLayerTableRecord
  2
F.SilkS
 70
0
  6
CONTINUOUS
  0
LAYER
  5
54
100
AcDbSymbolTableRecord
100
AcDbLayerTableRecord
  2
F.Cu
 70
0
  6
CONTINUOUS
  0
ENDTAB
  0
TABLE
  2
STYLE
  5
3
330
0
100
AcDbSymbolTable
 70
     1
  0
STYLE
  5
11
330
3
100
AcDbSymbolTableRecord
100
AcDbTextStyleTableRecord
  2
STANDARD
 70
     0
 40
0.0
 41
1.0
 50
0.0
 71
     0
 42
2.5
  3
txt
  4

  0
ENDTAB
  0
TABLE
  2
VIEW
  5
6
330
0
100
AcDbSymbolTable
 70
     0
  0
ENDTAB
  0
TABLE
  2
UCS
  5
7
330
0
100
AcDbSymbolTable
 70
     0
  0
ENDTAB
  0
TABLE
  2
APPID
  5
9
330
0
100
AcDbSymbolTable
 70
     2
  0
APPID
  5
12
330
9
100
AcDbSymbolTableRecord
100
AcDbRegAppTableRecord
  2
ACAD
 70
     0
  0
ENDTAB
  0
TABLE
  2
DIMSTYLE
  5
A
330
0
100
AcDbSymbolTable
 70
     1
  0
DIMSTYLE
105
27
330
A
100
AcDbSymbolTableRecord
100
AcDbDimStyleTableRecord
  2
ISO-25
 70
     0
  3

  4

  5

  6

  7

 40
1.0
 41
2.5
 42
0.625
 43
3.75
 44
1.25
 45
0.0
 46
0.0
 47
0.0
 48
0.0
140
2.5
141
2.5
142
0.0
143
0.03937007874016
144
1.0
145
0.0
146
1.0
147
0.625
 71
     0
 72
     0
 73
     0
 74
     0
 75
     0
 76
     0
 77
     1
 78
     8
170
     0
171
     3
172
     1
173
     0
174
     0
175
     0
176
     0
177
     0
178
     0
270
     2
271
     2
272
     2
273
     2
274
     3
340
11
275
     0
280
     0
281
     0
282
     0
283
     0
284
     8
285
     0
286
     0
287
     3
288
     0
  0
ENDTAB
  0
TABLE
  2
BLOCK_RECORD
  5
1
330
0
100
AcDbSymbolTable
 70
     1
  0
BLOCK_RECORD
  5
1F
330
1
100
AcDbSymbolTableRecord
100
AcDbBlockTableRecord
  2
*MODEL_SPACE
  0
BLOCK_RECORD
  5
1B
330
1
100
AcDbSymbolTableRecord
100
AcDbBlockTableRecord
  2
*PAPER_SPACE
  0
ENDTAB
  0
ENDSEC
  0
SECTION
  2
BLOCKS
  0
BLOCK
  5
20
330
1F
100
AcDbEntity
  8
0
100
AcDbBlockBegin
  2
*MODEL_SPACE
 70
     0
 10
0.0
 20
0.0
 30
0.0
  3
*MODEL_SPACE
  1

  0
ENDBLK
  5
21
330
1F
100
AcDbEntity
  8
0
100
AcDbBlockEnd
  0
BLOCK
  5
1C
330
1B
100
AcDbEntity
 67
     1
  8
0
100
AcDbBlockBegin
  2
*PAPER_SPACE
  1

  0
ENDBLK
  5
1D
330
1B
100
AcDbEntity
 67
     1
  8
0
100
AcDbBlockEnd
  0
ENDSEC
  0
SECTION
  2
ENTITIES
  0
SPLINE
  5
100
100
AcDbEntity
  8
Edge.Cuts
 62
7
100
AcDbSpline
 70
8
 71
3
 72
8
 73
4
 74
0
 40
0
 40
0
 40
0
 40
0
 40
1
 40
1
 40
1
 40
1
 10
32.197350
 20
1.127822
 30
0.0
 10
32.266907
 20
0.902907
 30
0.0
 10
32.111998
 20
1.080321
 30
0.0
 10
32.197456
 20
1.127981
 30
0.0
  0
SPLINE
  5
101
100
AcDbEntity
  8
Edge.Cuts
 62
7
100
AcDbSpline
 70
8
 71
3
 72
8
 73
4
 74
0
 40
0
 40
0
 40
0
 40
0
 40
1
 40
1
 40
1
 40
1
 10
50.604294
 20
7.045912
 30
0.0
 10
50.204609
 20
6.740545
 30
0.0
 10
50.907404
 20
6.886151
 30
0.0
 10
50.604323
 20
7.045785
 30
0.0
  0
SPLINE
  5
102
100
AcDbEntity
  8
Edge.Cuts
 62
7
100
AcDbSpline
 70
8
 71
3
 72
8
 73
4
 74
0
 40
0
 40
0
 40
0
 40
0
 40
1
 40
1
 40
1
 40
1
 10
57.176337
 20
12.049905
 30
0.0
 10
57.286255
 20
11.990683
 30
0.0
 10
57.113879
 20
11.991705
 30
0.0
 10
57.176350
 20
12.049913
 30
0.0
  0
SPLINE
  5
103
100
AcDbEntity
  8
Edge.Cuts
 62
7
100
AcDbSpline
 70
8
 71
3
 72
8
 73
4
 74
0
 40
0
 40
0
 40
0
 40
0
 40
1
 40
1
 40
1
 40
1
 10
54.630416
 20
22.679116
 30
0.0
 10
54.659560
 20
22.694038
 30
0.0
 10
54.679052
 20
22.598524
 30
0.0
 10
54.630382
 20
22.679116
 30
0.0
  0
SPLINE
  5
104
100
AcDbEntity
  8
Edge.Cuts
 62
7
100
AcDbSpline
 70
8
 71
3
 72
8
 73
4
 74
0
 40
0
 40
0
 40
0
 40
0
 40
1
 40
1
 40
1
 40
1
 10
0.676238
 20
29.810787
 30
0.0
 10
0.730335
 20
29.844248
 30
0.0
 10
0.706840
 20
29.754224
 30
0.0
 10
0.676349
 20
29.810866
 30
0.0
  0
SPLINE
  5
105
100
AcDbEntity
  8
Edge.Cuts
 62
7
100
AcDbSpline
 70
8
 71
3
 72
8
 73
4
 74
0
 40
0
 40
0
 40
0
 40
0
 40
1
 40
1
 40
1
 40
1
 10
49.170606
 20
38.393872
 30
0.0
 10
49.169283
 20
38.375166
 30
0.0
 10
49.169813
 20
38.390327
 30
0.0
 10
49.170871
 20
38.394005
 30
0.0
  0
SPLINE
  5
106
100
AcDbEntity
  8
Edge.Cuts
 62
7
100
AcDbSpline
 70
8
 71
3
 72
8
 73
4
 74
0
 40
0
 40
0
 40
0
 40
0
 40
1
 40
1
 40
1
 40
1
 10
24.917828
 20
53.690860
 30
0.0
 10
25.001878
 20
53.668740
 30
0.0
 10
24.830216
 20
53.426668
 30
0.0
 10
24.918000
 20
53.690868
 30
0.0
  0
SPLINE
  5
107
100
AcDbEntity
  8
Edge.Cuts
 62
6
100
AcDbSpline
 70
8
 71
3
 72
8
 73
4
 74
0
 40
0
 40
0
 40
0
 40
0
 40
1
 40
1
 40
1
 40
1
 10
33.127287
 20
62.175814
 30
0.0
 10
32.080322
 20
61.892829
 30
0.0
 10
31.197471
 20
61.160168
 30
0.0
 10
30.206902
 20
60.682507
 30
0.0
  0
SPLINE
  5
108
100
AcDbEntity
  8
Edge.Cuts
 62
6
100
AcDbSpline
 70
8
 71
3
 72
8
 73
4
 74
0
 40
0
 40
0
 40
0
 40
0
 40
1
 40
1
 40
1
 40
1
 10
30.206902
 20
60.682507
 30
0.0
 10
27.576238
 20
59.121195
 30
0.0
 10
26.260920
 20
56.166163
 30
0.0
 10
24.886866
 20
53.653199
 30
0.0
  0
SPLINE
  5
109
100
AcDbEntity
  8
Edge.Cuts
 62
6
100
AcDbSpline
 70
8
 71
3
 72
8
 73
4
 74
0
 40
0
 40
0
 40
0
 40
0
 40
1
 40
1
 40
1
 40
1
 10
24.886866
 20
53.653199
 30
0.0
 10
23.662805
 20
54.059430
 30
0.0
 10
22.517587
 20
53.275908
 30
0.0
 10
22.001782
 20
52.203294
 30
0.0
  0
SPLINE
  5
10a
100
AcDbEntity
  8
Edge.Cuts
 62
6
100
AcDbSpline
 70
8
 71
3
 72
8
 73
4
 74
0
 40
0
 40
0
 40
0
 40
0
 40
1
 40
1
 40
1
 40
1
 10
22.001782
 20
52.203294
 30
0.0
 10
21.186671
 20
51.943675
 30
0.0
 10
20.666931
 20
51.567950
 30
0.0
 10
19.811229
 20
51.871716
 30
0.0
  0
SPLINE
  5
10b
100
AcDbEntity
  8
Edge.Cuts
 62
6
100
AcDbSpline
 70
8
 71
3
 72
8
 73
4
 74
0
 40
0
 40
0
 40
0
 40
0
 40
1
 40
1
 40
1
 40
1
 10
19.811229
 20
51.871716
 30
0.0
 10
18.235240
 20
51.961076
 30
0.0
 10
17.424918
 20
50.411548
 30
0.0
 10
16.694073
 20
49.333910
 30
0.0
  0
SPLINE
  5
10c
100
AcDbEntity
  8
Edge.Cuts
 62
6
100
AcDbSpline
 70
8
 71
3
 72
8
 73
4
 74
0
 40
0
 40
0
 40
0
 40
0
 40
1
 40
1
 40
1
 40
1
 10
16.694073
 20
49.333910
 30
0.0
 10
15.515864
 20
48.185713
 30
0.0
 10
13.876655
 20
47.499447
 30
0.0
 10
12.626009
 20
46.389855
 30
0.0
  0
SPLINE
  5
10d
100
AcDbEntity
  8
Edge.Cuts
 62
6
100
AcDbSpline
 70
8
 71
3
 72
8
 73
4
 74
0
 40
0
 40
0
 40
0
 40
0
 40
1
 40
1
 40
1
 40
1
 10
12.626009
 20
46.389855
 30
0.0
 10
11.679041
 20
45.449282
 30
0.0
 10
11.764099
 20
44.042656
 30
0.0
 10
11.162658
 20
42.916708
 30
0.0
  0
SPLINE
  5
10e
100
AcDbEntity
  8
Edge.Cuts
 62
6
100
AcDbSpline
 70
8
 71
3
 72
8
 73
4
 74
0
 40
0
 40
0
 40
0
 40
0
 40
1
 40
1
 40
1
 40
1
 10
11.162658
 20
42.916708
 30
0.0
 10
10.590981
 20
40.759320
 30
0.0
 10
10.745786
 20
38.500830
 30
0.0
 10
10.467722
 20
36.299604
 30
0.0
  0
SPLINE
  5
10f
100
AcDbEntity
  8
Edge.Cuts
 62
6
100
AcDbSpline
 70
8
 71
3
 72
8
 73
4
 74
0
 40
0
 40
0
 40
0
 40
0
 40
1
 40
1
 40
1
 40
1
 10
10.467722
 20
36.299604
 30
0.0
 10
10.421907
 20
34.811068
 30
0.0
 10
10.309014
 20
33.186996
 30
0.0
 10
11.472115
 20
32.049676
 30
0.0
  0
SPLINE
  5
110
100
AcDbEntity
  8
Edge.Cuts
 62
6
100
AcDbSpline
 70
8
 71
3
 72
8
 73
4
 74
0
 40
0
 40
0
 40
0
 40
0
 40
1
 40
1
 40
1
 40
1
 10
11.472115
 20
32.049676
 30
0.0
 10
13.047943
 20
30.146241
 30
0.0
 10
13.876428
 20
27.833848
 30
0.0
 10
14.717518
 20
25.548746
 30
0.0
  0
SPLINE
  5
111
100
AcDbEntity
  8
Edge.Cuts
 62
6
100
AcDbSpline
 70
8
 71
3
 72
8
 73
4
 74
0
 40
0
 40
0
 40
0
 40
0
 40
1
 40
1
 40
1
 40
1
 10
14.717518
 20
25.548746
 30
0.0
 10
15.717185
 20
23.285613
 30
0.0
 10
17.391068
 20
21.401148
 30
0.0
 10
18.216147
 20
19.044945
 30
0.0
  0
SPLINE
  5
112
100
AcDbEntity
  8
Edge.Cuts
 62
6
100
AcDbSpline
 70
8
 71
3
 72
8
 73
4
 74
0
 40
0
 40
0
 40
0
 40
0
 40
1
 40
1
 40
1
 40
1
 10
18.216147
 20
19.044945
 30
0.0
 10
18.923882
 20
17.898955
 30
0.0
 10
16.804788
 20
18.866814
 30
0.0
 10
16.218304
 20
19.031928
 30
0.0
  0
SPLINE
  5
113
100
AcDbEntity
  8
Edge.Cuts
 62
6
100
AcDbSpline
 70
8
 71
3
 72
8
 73
4
 74
0
 40
0
 40
0
 40
0
 40
0
 40
1
 40
1
 40
1
 40
1
 10
16.218304
 20
19.031928
 30
0.0
 10
14.283744
 20
19.777786
 30
0.0
 10
12.612716
 20
21.050297
 30
0.0
 10
11.028184
 20
22.408375
 30
0.0
  0
SPLINE
  5
114
100
AcDbEntity
  8
Edge.Cuts
 62
6
100
AcDbSpline
 70
8
 71
3
 72
8
 73
4
 74
0
 40
0
 40
0
 40
0
 40
0
 40
1
 40
1
 40
1
 40
1
 10
11.028184
 20
22.408375
 30
0.0
 10
10.925856
 20
23.095430
 30
0.0
 10
11.888046
 20
23.921052
 30
0.0
 10
11.787049
 20
24.800012
 30
0.0
  0
SPLINE
  5
115
100
AcDbEntity
  8
Edge.Cuts
 62
6
100
AcDbSpline
 70
8
 71
3
 72
8
 73
4
 74
0
 40
0
 40
0
 40
0
 40
0
 40
1
 40
1
 40
1
 40
1
 10
11.787049
 20
24.800012
 30
0.0
 10
11.894147
 20
26.100053
 30
0.0
 10
11.083572
 20
27.284977
 30
0.0
 10
10.040549
 20
27.987849
 30
0.0
  0
SPLINE
  5
116
100
AcDbEntity
  8
Edge.Cuts
 62
6
100
AcDbSpline
 70
8
 71
3
 72
8
 73
4
 74
0
 40
0
 40
0
 40
0
 40
0
 40
1
 40
1
 40
1
 40
1
 10
10.040549
 20
27.987849
 30
0.0
 10
9.836939
 20
28.954346
 30
0.0
 10
9.944773
 20
29.843174
 30
0.0
 10
10.527933
 20
30.624344
 30
0.0
  0
SPLINE
  5
117
100
AcDbEntity
  8
Edge.Cuts
 62
6
100
AcDbSpline
 70
8
 71
3
 72
8
 73
4
 74
0
 40
0
 40
0
 40
0
 40
0
 40
1
 40
1
 40
1
 40
1
 10
10.527933
 20
30.624344
 30
0.0
 10
11.307346
 20
33.013398
 30
0.0
 10
8.343471
 20
35.365786
 30
0.0
 10
6.146608
 20
34.179277
 30
0.0
  0
SPLINE
  5
118
100
AcDbEntity
  8
Edge.Cuts
 62
6
100
AcDbSpline
 70
8
 71
3
 72
8
 73
4
 74
0
 40
0
 40
0
 40
0
 40
0
 40
1
 40
1
 40
1
 40
1
 10
6.146608
 20
34.179277
 30
0.0
 10
5.393262
 20
33.726490
 30
0.0
 10
4.489641
 20
34.654707
 30
0.0
 10
3.598931
 20
34.237938
 30
0.0
  0
SPLINE
  5
119
100
AcDbEntity
  8
Edge.Cuts
 62
6
100
AcDbSpline
 70
8
 71
3
 72
8
 73
4
 74
0
 40
0
 40
0
 40
0
 40
0
 40
1
 40
1
 40
1
 40
1
 10
3.598931
 20
34.237938
 30
0.0
 10
1.282812
 20
33.436072
 30
0.0
 10
0.347300
 20
30.644246
 30
0.0
 10
0.534398
 20
28.394810
 30
0.0
  0
SPLINE
  5
11a
100
AcDbEntity
  8
Edge.Cuts
 62
6
100
AcDbSpline
 70
8
 71
3
 72
8
 73
4
 74
0
 40
0
 40
0
 40
0
 40
0
 40
1
 40
1
 40
1
 40
1
 10
0.534398
 20
28.394810
 30
0.0
 10
-0.552098
 20
26.449806
 30
0.0
 10
0.353174
 20
24.072066
 30
0.0
 10
1.614245
 20
22.435265
 30
0.0
  0
SPLINE
  5
11b
100
AcDbEntity
  8
Edge.Cuts
 62
6
100
AcDbSpline
 70
8
 71
3
 72
8
 73
4
 74
0
 40
0
 40
0
 40
0
 40
0
 40
1
 40
1
 40
1
 40
1
 10
1.614245
 20
22.435265
 30
0.0
 10
2.203798
 20
21.613945
 30
0.0
 10
3.731903
 20
22.299756
 30
0.0
 10
3.366145
 20
20.989179
 30
0.0
  0
SPLINE
  5
11c
100
AcDbEntity
  8
Edge.Cuts
 62
6
100
AcDbSpline
 70
8
 71
3
 72
8
 73
4
 74
0
 40
0
 40
0
 40
0
 40
0
 40
1
 40
1
 40
1
 40
1
 10
3.366145
 20
20.989179
 30
0.0
 10
3.690265
 20
18.725106
 30
0.0
 10
6.088714
 20
17.764975
 30
0.0
 10
7.481635
 20
16.220098
 30
0.0
  0
SPLINE
  5
11d
100
AcDbEntity
  8
Edge.Cuts
 62
6
100
AcDbSpline
 70
8
 71
3
 72
8
 73
4
 74
0
 40
0
 40
0
 40
0
 40
0
 40
1
 40
1
 40
1
 40
1
 10
7.481635
 20
16.220098
 30
0.0
 10
10.784764
 20
13.300324
 30
0.0
 10
14.651247
 20
10.419632
 30
0.0
 10
19.197514
 20
10.085415
 30
0.0
  0
SPLINE
  5
11e
100
AcDbEntity
  8
Edge.Cuts
 62
6
100
AcDbSpline
 70
8
 71
3
 72
8
 73
4
 74
0
 40
0
 40
0
 40
0
 40
0
 40
1
 40
1
 40
1
 40
1
 10
19.197514
 20
10.085415
 30
0.0
 10
20.387968
 20
10.002709
 30
0.0
 10
21.823688
 20
10.134151
 30
0.0
 10
22.839273
 20
10.303379
 30
0.0
  0
SPLINE
  5
11f
100
AcDbEntity
  8
Edge.Cuts
 62
6
100
AcDbSpline
 70
8
 71
3
 72
8
 73
4
 74
0
 40
0
 40
0
 40
0
 40
0
 40
1
 40
1
 40
1
 40
1
 10
22.839273
 20
10.303379
 30
0.0
 10
21.883727
 20
9.795654
 30
0.0
 10
20.980047
 20
9.313678
 30
0.0
 10
20.031891
 20
8.769631
 30
0.0
  0
SPLINE
  5
120
100
AcDbEntity
  8
Edge.Cuts
 62
6
100
AcDbSpline
 70
8
 71
3
 72
8
 73
4
 74
0
 40
0
 40
0
 40
0
 40
0
 40
1
 40
1
 40
1
 40
1
 10
20.031891
 20
8.769631
 30
0.0
 10
17.917875
 20
7.429161
 30
0.0
 10
16.358173
 20
4.991789
 30
0.0
 10
16.259981
 20
2.476505
 30
0.0
  0
SPLINE
  5
121
100
AcDbEntity
  8
Edge.Cuts
 62
6
100
AcDbSpline
 70
8
 71
3
 72
8
 73
4
 74
0
 40
0
 40
0
 40
0
 40
0
 40
1
 40
1
 40
1
 40
1
 10
16.259981
 20
2.476505
 30
0.0
 10
16.461279
 20
0.590940
 30
0.0
 10
18.867322
 20
-0.352319
 30
0.0
 10
20.458429
 20
0.212397
 30
0.0
  0
SPLINE
  5
122
100
AcDbEntity
  8
Edge.Cuts
 62
6
100
AcDbSpline
 70
8
 71
3
 72
8
 73
4
 74
0
 40
0
 40
0
 40
0
 40
0
 40
1
 40
1
 40
1
 40
1
 10
20.458429
 20
0.212397
 30
0.0
 10
21.406318
 20
0.599906
 30
0.0
 10
22.368494
 20
1.778295
 30
0.0
 10
23.399026
 20
1.413752
 30
0.0
  0
SPLINE
  5
123
100
AcDbEntity
  8
Edge.Cuts
 62
6
100
AcDbSpline
 70
8
 71
3
 72
8
 73
4
 74
0
 40
0
 40
0
 40
0
 40
0
 40
1
 40
1
 40
1
 40
1
 10
23.399026
 20
1.413752
 30
0.0
 10
24.070806
 20
0.507643
 30
0.0
 10
25.282294
 20
0.584100
 30
0.0
 10
26.218171
 20
0.779485
 30
0.0
  0
SPLINE
  5
124
100
AcDbEntity
  8
Edge.Cuts
 62
6
100
AcDbSpline
 70
8
 71
3
 72
8
 73
4
 74
0
 40
0
 40
0
 40
0
 40
0
 40
1
 40
1
 40
1
 40
1
 10
26.218171
 20
0.779485
 30
0.0
 10
27.344328
 20
0.422929
 30
0.0
 10
28.434018
 20
1.544205
 30
0.0
 10
28.796138
 20
2.229241
 30
0.0
  0
SPLINE
  5
125
100
AcDbEntity
  8
Edge.Cuts
 62
6
100
AcDbSpline
 70
8
 71
3
 72
8
 73
4
 74
0
 40
0
 40
0
 40
0
 40
0
 40
1
 40
1
 40
1
 40
1
 10
28.796138
 20
2.229241
 30
0.0
 10
29.851659
 20
0.657665
 30
0.0
 10
31.926507
 20
0.621962
 30
0.0
 10
33.506975
 20
1.276431
 30
0.0
  0
SPLINE
  5
126
100
AcDbEntity
  8
Edge.Cuts
 62
6
100
AcDbSpline
 70
8
 71
3
 72
8
 73
4
 74
0
 40
0
 40
0
 40
0
 40
0
 40
1
 40
1
 40
1
 40
1
 10
33.506975
 20
1.276431
 30
0.0
 10
37.246254
 20
2.386014
 30
0.0
 10
41.114330
 20
3.198090
 30
0.0
 10
45.013714
 20
3.197987
 30
0.0
  0
SPLINE
  5
127
100
AcDbEntity
  8
Edge.Cuts
 62
6
100
AcDbSpline
 70
8
 71
3
 72
8
 73
4
 74
0
 40
0
 40
0
 40
0
 40
0
 40
1
 40
1
 40
1
 40
1
 10
45.013714
 20
3.197987
 30
0.0
 10
46.988216
 20
3.303550
 30
0.0
 10
48.842981
 20
4.268769
 30
0.0
 10
49.989699
 20
5.892844
 30
0.0
  0
SPLINE
  5
128
100
AcDbEntity
  8
Edge.Cuts
 62
6
100
AcDbSpline
 70
8
 71
3
 72
8
 73
4
 74
0
 40
0
 40
0
 40
0
 40
0
 40
1
 40
1
 40
1
 40
1
 10
49.989699
 20
5.892844
 30
0.0
 10
51.297858
 20
6.617493
 30
0.0
 10
51.394685
 20
8.336722
 30
0.0
 10
51.240962
 20
9.635750
 30
0.0
  0
SPLINE
  5
129
100
AcDbEntity
  8
Edge.Cuts
 62
6
100
AcDbSpline
 70
8
 71
3
 72
8
 73
4
 74
0
 40
0
 40
0
 40
0
 40
0
 40
1
 40
1
 40
1
 40
1
 10
51.240962
 20
9.635750
 30
0.0
 10
52.587744
 20
10.117633
 30
0.0
 10
53.953913
 20
10.576747
 30
0.0
 10
55.326033
 20
10.918483
 30
0.0
  0
SPLINE
  5
12a
100
AcDbEntity
  8
Edge.Cuts
 62
6
100
AcDbSpline
 70
8
 71
3
 72
8
 73
4
 74
0
 40
0
 40
0
 40
0
 40
0
 40
1
 40
1
 40
1
 40
1
 10
55.326033
 20
10.918483
 30
0.0
 10
56.272575
 20
11.710381
 30
0.0
 10
57.557236
 20
11.787870
 30
0.0
 10
58.387843
 20
12.688978
 30
0.0
  0
SPLINE
  5
12b
100
AcDbEntity
  8
Edge.Cuts
 62
6
100
AcDbSpline
 70
8
 71
3
 72
8
 73
4
 74
0
 40
0
 40
0
 40
0
 40
0
 40
1
 40
1
 40
1
 40
1
 10
58.387843
 20
12.688978
 30
0.0
 10
59.790001
 20
12.511487
 30
0.0
 10
61.715542
 20
12.904528
 30
0.0
 10
61.860303
 20
14.614325
 30
0.0
  0
SPLINE
  5
12c
100
AcDbEntity
  8
Edge.Cuts
 62
6
100
AcDbSpline
 70
8
 71
3
 72
8
 73
4
 74
0
 40
0
 40
0
 40
0
 40
0
 40
1
 40
1
 40
1
 40
1
 10
61.860303
 20
14.614325
 30
0.0
 10
62.183365
 20
16.285784
 30
0.0
 10
60.402567
 20
17.199179
 30
0.0
 10
58.996399
 20
17.310714
 30
0.0
  0
SPLINE
  5
12d
100
AcDbEntity
  8
Edge.Cuts
 62
6
100
AcDbSpline
 70
8
 71
3
 72
8
 73
4
 74
0
 40
0
 40
0
 40
0
 40
0
 40
1
 40
1
 40
1
 40
1
 10
58.996399
 20
17.310714
 30
0.0
 10
56.286608
 20
17.980163
 30
0.0
 10
53.453313
 20
17.522595
 30
0.0
 10
50.729733
 20
18.098130
 30
0.0
  0
SPLINE
  5
12e
100
AcDbEntity
  8
Edge.Cuts
 62
6
100
AcDbSpline
 70
8
 71
3
 72
8
 73
4
 74
0
 40
0
 40
0
 40
0
 40
0
 40
1
 40
1
 40
1
 40
1
 10
50.729733
 20
18.098130
 30
0.0
 10
52.772752
 20
18.259042
 30
0.0
 10
54.193862
 20
20.037556
 30
0.0
 10
54.523765
 20
21.961102
 30
0.0
  0
SPLINE
  5
12f
100
AcDbEntity
  8
Edge.Cuts
 62
6
100
AcDbSpline
 70
8
 71
3
 72
8
 73
4
 74
0
 40
0
 40
0
 40
0
 40
0
 40
1
 40
1
 40
1
 40
1
 10
54.523765
 20
21.961102
 30
0.0
 10
55.054316
 20
24.975335
 30
0.0
 10
55.186015
 20
28.104369
 30
0.0
 10
56.003681
 20
31.086600
 30
0.0
  0
SPLINE
  5
130
100
AcDbEntity
  8
Edge.Cuts
 62
6
100
AcDbSpline
 70
8
 71
3
 72
8
 73
4
 74
0
 40
0
 40
0
 40
0
 40
0
 40
1
 40
1
 40
1
 40
1
 10
56.003681
 20
31.086600
 30
0.0
 10
55.976091
 20
32.420368
 30
0.0
 10
56.950655
 20
32.608267
 30
0.0
 10
58.066708
 20
32.481582
 30
0.0
  0
SPLINE
  5
131
100
AcDbEntity
  8
Edge.Cuts
 62
6
100
AcDbSpline
 70
8
 71
3
 72
8
 73
4
 74
0
 40
0
 40
0
 40
0
 40
0
 40
1
 40
1
 40
1
 40
1
 10
58.066708
 20
32.481582
 30
0.0
 10
59.603305
 20
32.468062
 30
0.0
 10
60.959082
 20
33.285538
 30
0.0
 10
61.948277
 20
34.398021
 30
0.0
  0
SPLINE
  5
132
100
AcDbEntity
  8
Edge.Cuts
 62
6
100
AcDbSpline
 70
8
 71
3
 72
8
 73
4
 74
0
 40
0
 40
0
 40
0
 40
0
 40
1
 40
1
 40
1
 40
1
 10
61.948277
 20
34.398021
 30
0.0
 10
63.541967
 20
35.159813
 30
0.0
 10
65.458049
 20
35.689901
 30
0.0
 10
66.290627
 20
37.437199
 30
0.0
  0
SPLINE
  5
133
100
AcDbEntity
  8
Edge.Cuts
 62
6
100
AcDbSpline
 70
8
 71
3
 72
8
 73
4
 74
0
 40
0
 40
0
 40
0
 40
0
 40
1
 40
1
 40
1
 40
1
 10
66.290627
 20
37.437199
 30
0.0
 10
67.363129
 20
39.298179
 30
0.0
 10
67.226895
 20
42.537075
 30
0.0
 10
64.921860
 20
43.361052
 30
0.0
  0
SPLINE
  5
134
100
AcDbEntity
  8
Edge.Cuts
 62
6
100
AcDbSpline
 70
8
 71
3
 72
8
 73
4
 74
0
 40
0
 40
0
 40
0
 40
0
 40
1
 40
1
 40
1
 40
1
 10
64.921860
 20
43.361052
 30
0.0
 10
63.915564
 20
43.413177
 30
0.0
 10
63.333488
 20
43.235615
 30
0.0
 10
63.631504
 20
44.479758
 30
0.0
  0
SPLINE
  5
135
100
AcDbEntity
  8
Edge.Cuts
 62
6
100
AcDbSpline
 70
8
 71
3
 72
8
 73
4
 74
0
 40
0
 40
0
 40
0
 40
0
 40
1
 40
1
 40
1
 40
1
 10
63.631504
 20
44.479758
 30
0.0
 10
63.768323
 20
46.611301
 30
0.0
 10
60.844078
 20
48.051707
 30
0.0
 10
59.375422
 20
46.376007
 30
0.0
  0
SPLINE
  5
136
100
AcDbEntity
  8
Edge.Cuts
 62
6
100
AcDbSpline
 70
8
 71
3
 72
8
 73
4
 74
0
 40
0
 40
0
 40
0
 40
0
 40
1
 40
1
 40
1
 40
1
 10
59.375422
 20
46.376007
 30
0.0
 10
58.628924
 20
45.842459
 30
0.0
 10
58.739710
 20
44.520621
 30
0.0
 10
57.608161
 20
44.607896
 30
0.0
  0
SPLINE
  5
137
100
AcDbEntity
  8
Edge.Cuts
 62
6
100
AcDbSpline
 70
8
 71
3
 72
8
 73
4
 74
0
 40
0
 40
0
 40
0
 40
0
 40
1
 40
1
 40
1
 40
1
 10
57.608161
 20
44.607896
 30
0.0
 10
55.298527
 20
44.251843
 30
0.0
 10
52.639529
 20
43.511145
 30
0.0
 10
51.676440
 20
41.120088
 30
0.0
  0
SPLINE
  5
138
100
AcDbEntity
  8
Edge.Cuts
 62
6
100
AcDbSpline
 70
8
 71
3
 72
8
 73
4
 74
0
 40
0
 40
0
 40
0
 40
0
 40
1
 40
1
 40
1
 40
1
 10
51.676440
 20
41.120088
 30
0.0
 10
51.319535
 20
39.651374
 30
0.0
 10
50.352011
 20
38.434719
 30
0.0
 10
50.177743
 20
36.894816
 30
0.0
  0
SPLINE
  5
139
100
AcDbEntity
  8
Edge.Cuts
 62
6
100
AcDbSpline
 70
8
 71
3
 72
8
 73
4
 74
0
 40
0
 40
0
 40
0
 40
0
 40
1
 40
1
 40
1
 40
1
 10
50.177743
 20
36.894816
 30
0.0
 10
49.841939
 20
35.537646
 30
0.0
 10
49.512506
 20
34.178909
 30
0.0
 10
49.182878
 20
32.820228
 30
0.0
  0
SPLINE
  5
13a
100
AcDbEntity
  8
Edge.Cuts
 62
6
100
AcDbSpline
 70
8
 71
3
 72
8
 73
4
 74
0
 40
0
 40
0
 40
0
 40
0
 40
1
 40
1
 40
1
 40
1
 10
49.182878
 20
32.820228
 30
0.0
 10
48.787357
 20
34.543812
 30
0.0
 10
48.097315
 20
36.534858
 30
0.0
 10
49.283089
 20
38.071681
 30
0.0
  0
SPLINE
  5
13b
100
AcDbEntity
  8
Edge.Cuts
 62
6
100
AcDbSpline
 70
8
 71
3
 72
8
 73
4
 74
0
 40
0
 40
0
 40
0
 40
0
 40
1
 40
1
 40
1
 40
1
 10
49.283089
 20
38.071681
 30
0.0
 10
49.726988
 20
39.530838
 30
0.0
 10
49.136335
 20
41.083448
 30
0.0
 10
49.335212
 20
42.585933
 30
0.0
  0
SPLINE
  5
13c
100
AcDbEntity
  8
Edge.Cuts
 62
6
100
AcDbSpline
 70
8
 71
3
 72
8
 73
4
 74
0
 40
0
 40
0
 40
0
 40
0
 40
1
 40
1
 40
1
 40
1
 10
49.335212
 20
42.585933
 30
0.0
 10
49.240462
 20
43.774244
 30
0.0
 10
48.464237
 20
44.789220
 30
0.0
 10
48.846100
 20
46.007919
 30
0.0
  0
SPLINE
  5
13d
100
AcDbEntity
  8
Edge.Cuts
 62
6
100
AcDbSpline
 70
8
 71
3
 72
8
 73
4
 74
0
 40
0
 40
0
 40
0
 40
0
 40
1
 40
1
 40
1
 40
1
 10
48.846100
 20
46.007919
 30
0.0
 10
49.283110
 20
48.396425
 30
0.0
 10
48.176439
 20
50.713951
 30
0.0
 10
46.483290
 20
52.335528
 30
0.0
  0
SPLINE
  5
13e
100
AcDbEntity
  8
Edge.Cuts
 62
6
100
AcDbSpline
 70
8
 71
3
 72
8
 73
4
 74
0
 40
0
 40
0
 40
0
 40
0
 40
1
 40
1
 40
1
 40
1
 10
46.483290
 20
52.335528
 30
0.0
 10
43.158282
 20
56.304815
 30
0.0
 10
39.365206
 20
60.314924
 30
0.0
 10
34.346337
 20
62.047793
 30
0.0
  0
SPLINE
  5
13f
100
AcDbEntity
  8
Edge.Cuts
 62
6
100
AcDbSpline
 70
8
 71
3
 72
8
 73
4
 74
0
 40
0
 40
0
 40
0
 40
0
 40
1
 40
1
 40
1
 40
1
 10
34.346337
 20
62.047793
 30
0.0
 10
33.960231
 20
62.210353
 30
0.0
 10
33.535317
 20
62.159704
 30
0.0
 10
33.127634
 20
62.177481
 30
0.0
  0
ENDSEC
  0
SECTION
  2
OBJECTS
  0
DICTIONARY
  5
C
330
0
100
AcDbDictionary
  3
ACAD_GROUP
350
D
  3
ACAD_MLINESTYLE
350
17
  0
DICTIONARY
  5
D
330
C
100
AcDbDictionary
  0
DICTIONARY
  5
1A
330
C
100
AcDbDictionary
  0
DICTIONARY
  5
17
330
C
100
AcDbDictionary
  3
STANDARD
350
18
  0
DICTIONARY
  5
19
330
C
100
AcDbDictionary
  0
ENDSEC
  0
EOF
